<?xml version="1.0" encoding="utf-8"?>
<!-- Generator: Adobe Illustrator 22.0.1, SVG Export Plug-In . SVG Version: 6.00 Build 0)  -->
<svg version="1.1" id="Warstwa_1" xmlns="http://www.w3.org/2000/svg" xmlns:xlink="http://www.w3.org/1999/xlink" x="0px" y="0px"
	 viewBox="0 0 1920 1080" style="enable-background:new 0 0 1920 1080;" xml:space="preserve">
<style type="text/css">
	.st0{fill:#8C114A;}
	.st1{fill:#0D0D0D;}
</style>
<path class="st0" d="M1921,640C1353.3,787,785.7,934,218,1081c-72.3,0-144.7,0-217,0c0-191.7,0-383.3,0-575
	C641,338.7,1281,171.3,1921,4c0,99,0,198,0,297C1921,414,1921,527,1921,640z"/>
<path class="st0" d="M2136,468"/>
<path class="st1" d="M1920,1080c-276.8,0.1-553.6,0.2-830.4,0.4c-290.5,0.2-581.1,0.4-871.6,0.6c567.7-147,1135.3-294,1703-441
	C1920.7,786.7,1920.3,933.3,1920,1080z"/>
<path class="st1" d="M1745,1299"/>
</svg>
